# xmcd
#
# Track frame offsets:
#	150
#	14585
#	28952
#	44164
#	56909
#	77828
#	98935
#	115407
#	130167
#	144670
#	153877
#	163627
#	173976
#	184219
#	197642
#	207985
#	222054
#	249502
#	265019
#	279721
#
# Disc length: 3940 seconds
#
# Revision: 0
# Processed by: cddbd v1.5.2PL0 Copyright (c) Steve Scherf et al.
# Submitted via: EasyCDDAExtractor 16.0.6.1
#
DISCID=320f6214
DTITLE=Συλλογικός δίσκος - Τα μεγάλα τραγούδια-Μ. Θεοδωράκης 07
DYEAR=2010
DGENRE=Λαϊκή
TTITLE0=Μητσιάς Μανώλης - Μαργαρίτα μαγιοπούλα [Ιάκ. Καμπανέλλης]
TTITLE1=Φαραντούρη Μαρία - Η ωραία Ελένη [Κώστας Καρτελιάς]
TTITLE2=Πουλόπουλος Γιάννης - Γωνιά, γωνιά [Δημήτρης Χριστοδούλου]
TTITLE3=Γλυκερία - Μέσα σε κήπο κάθησα [Μάνος Ελευθερίου]
TTITLE4=Μπάσης Δημήτρης - Της δικαιοσύνης ήλιε νοητέ [Οδυσσέας Ελύτης]
TTITLE5=Τρίφωνο - Το τραγούδι της ξενητειάς(Φεγγάρι μάγια)[Ερρ. Θαλασσινός]
TTITLE6=Λίντα Μαίρη - Μάννα μου και Παναγιά [Τάσος Λειβαδίτης]
TTITLE7=Δημητριάδη Μαρία - Το σαράκι [Μάνος Ελευθερίου]
TTITLE8=Ζώη Μαρία - Το σφαγείο [Μίκης Θεοδωράκης]
TTITLE9=Θεοδωράκης Μίκης - Γλυκοφιλούσα Παναγιά [Μάνος Ελευθερίου]
TTITLE10=Συρρής Γιάννης - Έστειλα στο κόμμα [Φώντας Λάδης]
TTITLE11=Βιτάλη Ελένη - Επιτύμβιο [Γιάννης Ρίτσος]
TTITLE12=Μάνου Αφροδίτη - Γειά σου μάννα, γειά σου Στράτο [Φώντας Λάδης]
TTITLE13=Μπιρμπίλη Σούλα - Το ψωμί είναι στο τραπέζι [Ιάκ. Καμπανέλλης]
TTITLE14=Ζορμπαλά Μαργαρίτα - Η Μάγια [Οδυσσέας Ελύτης]
TTITLE15=Σταμπογλής Χριστόφορος - Χρυσοπράσινο φύλλο [Λεωνίδας Μαλένης]
TTITLE16=Μητσιάς Μανώλης-Θεοδωράκης Μίκης - Μιλώ [Μανόλης Αναγνωστάκης]
TTITLE17=Δημητριάδη Μαρία - Ματωμένο φεγγάρι [Νίκος Γκάτσος]
TTITLE18=Μπιθικώτσης Γρηγόρης - Μέρα Μαγιού-Δραπετσώνα [Γ. Ρίτσος/Τάσος Λειβαδ
TTITLE18=ίτης]
TTITLE19=Άνευ ερμηνευτού - Άγιος ο έρωτας [οργανικό]
EXTD=
EXTT0=
EXTT1=
EXTT2=
EXTT3=
EXTT4=
EXTT5=
EXTT6=
EXTT7=
EXTT8=
EXTT9=
EXTT10=
EXTT11=
EXTT12=
EXTT13=
EXTT14=
EXTT15=
EXTT16=
EXTT17=
EXTT18=
EXTT19=
PLAYORDER=
